<svg width="20" height="20" viewBox="0 0 20 20" fill="none" xmlns="http://www.w3.org/2000/svg">
<path d="M13.85 2.49167C13.7532 2.39466 13.6383 2.3177 13.5117 2.26518C13.3852 2.21267 13.2495 2.18564 13.1125 2.18564C12.9755 2.18564 12.8398 2.21267 12.7133 2.26518C12.5867 2.3177 12.4718 2.39466 12.375 2.49167L5.45 9.41667C5.37275 9.49376 5.31146 9.58534 5.26964 9.68615C5.22782 9.78696 5.2063 9.89503 5.2063 10.0042C5.2063 10.1133 5.22782 10.2214 5.26964 10.3222C5.31146 10.423 5.37275 10.5146 5.45 10.5917L12.375 17.5167C12.7833 17.925 13.4417 17.925 13.85 17.5167C14.2583 17.1083 14.2583 16.45 13.85 16.0417L7.81667 10L13.8583 3.95833C14.2583 3.55833 14.2583 2.89167 13.85 2.49167Z" fill="#18172B" stroke="#18172B" stroke-width="0.4"/>
</svg>
