<svg width="24" height="24" viewBox="0 0 24 24" fill="none" xmlns="http://www.w3.org/2000/svg">
<path d="M11.2751 6.61047L11.9982 7.36734L12.7213 6.61047C13.6017 5.68883 15.0007 4.58984 16.4945 4.58984C17.9222 4.58984 19.0744 5.08348 19.8673 5.87499C20.6601 6.66638 21.1539 7.81567 21.1539 9.23907C21.1539 10.7805 20.5544 12.0749 19.5785 13.2912C18.5835 14.5314 17.2485 15.6301 15.8332 16.7897C15.8331 16.7898 15.8331 16.7898 15.833 16.7899L15.8109 16.808C14.5232 17.8626 13.1071 19.0224 11.9987 20.3231C10.9011 19.0332 9.49814 17.8824 8.22149 16.8353L8.16655 16.7902L8.16615 16.7899C6.75041 15.6298 5.41555 14.5308 4.42085 13.2906C3.44535 12.0744 2.84619 10.7801 2.84619 9.23907C2.84619 7.81568 3.33999 6.6664 4.13284 5.87503C4.9258 5.08353 6.07826 4.58984 7.5065 4.58984C8.9988 4.58984 10.3939 5.688 11.2751 6.61047Z" stroke="#18172B" stroke-width="2"/>
</svg>
